<?xml version="1.0" standalone="no"?>
<!DOCTYPE svg PUBLIC "-//W3C//DTD SVG 20010904//EN"
 "http://www.w3.org/TR/2001/REC-SVG-20010904/DTD/svg10.dtd">
<svg version="1.0" xmlns="http://www.w3.org/2000/svg"
 width="1080.000000pt" height="1080.000000pt" viewBox="0 0 1080.000000 1080.000000"
 preserveAspectRatio="xMidYMid meet">
<metadata>
Created by potrace 1.14, written by Peter Selinger 2001-2017
</metadata>
<g transform="translate(0.000000,1080.000000) scale(0.100000,-0.100000)"
fill="#000000" stroke="none">
<path d="M1729 6960 c35 -126 37 -130 63 -130 17 0 29 6 32 18 3 9 13 44 22
77 19 67 21 65 49 -37 15 -53 19 -58 44 -58 27 0 30 4 45 63 8 34 24 93 35
130 l20 68 -32 -3 c-31 -3 -33 -6 -52 -75 -11 -40 -22 -73 -25 -73 -4 0 -14
34 -24 75 -16 66 -20 75 -40 75 -20 0 -25 -9 -40 -75 -10 -41 -21 -75 -25 -75
-4 0 -15 34 -26 75 -18 74 -19 75 -50 75 l-32 0 36 -130z"/>
<path d="M2090 6960 l0 -130 90 0 c89 0 90 0 90 25 0 24 -3 25 -60 25 l-60 0
0 30 c0 29 2 30 45 30 38 0 45 3 45 20 0 17 -7 20 -45 20 -43 0 -45 1 -45 30
l0 30 60 0 c57 0 60 1 60 25 0 25 -1 25 -90 25 l-90 0 0 -130z"/>
<path d="M2300 7055 c0 -28 4 -35 20 -35 16 0 20 7 20 35 0 28 -4 35 -20 35
-16 0 -20 -7 -20 -35z"/>
<path d="M2400 6961 l0 -131 29 0 c28 0 30 3 33 42 4 62 31 63 60 4 18 -38 27
-46 50 -46 33 0 33 0 8 51 l-21 40 23 18 c31 26 31 92 1 123 -18 17 -37 22
-102 26 l-81 5 0 -132z m140 60 c18 -36 -7 -60 -62 -61 -14 0 -18 9 -18 40 0
39 1 40 35 40 24 0 37 -6 45 -19z"/>
<path d="M2650 6960 l0 -130 90 0 c89 0 90 0 90 25 0 24 -3 25 -60 25 l-60 0
0 30 c0 29 2 30 45 30 38 0 45 3 45 20 0 17 -7 20 -45 20 -43 0 -45 1 -45 30
l0 30 60 0 c57 0 60 1 60 25 0 25 -1 25 -90 25 l-90 0 0 -130z"/>
<path d="M1809 6687 c-40 -27 -61 -77 -53 -126 15 -93 110 -137 200 -95 86 41
88 185 4 229 -44 23 -111 19 -151 -8z m125 -48 c20 -16 26 -29 26 -59 0 -30
-6 -43 -26 -59 -34 -27 -57 -26 -90 2 -20 17 -27 33 -27 57 0 24 7 40 27 57
33 28 56 29 90 2z"/>
<path d="M2070 6580 l0 -130 30 0 c28 0 30 2 30 39 l0 38 51 6 c58 7 85 26 94
66 15 70 -38 111 -145 111 l-60 0 0 -130z m140 60 c17 -32 -4 -60 -45 -60 -34
0 -35 1 -35 40 0 39 1 40 35 40 24 0 37 -6 45 -20z"/>
<path d="M2320 6580 l0 -130 90 0 c89 0 90 0 90 25 0 24 -3 25 -60 25 l-60 0
0 30 c0 29 2 30 45 30 38 0 45 3 45 20 0 17 -7 20 -45 20 -43 0 -45 1 -45 30
l0 30 60 0 c57 0 60 1 60 25 0 25 -1 25 -90 25 l-90 0 0 -130z"/>
<path d="M2550 6580 l0 -130 30 0 30 0 0 76 c0 41 4 73 9 70 5 -3 28 -37 51
-76 37 -61 46 -70 71 -70 l29 0 0 130 0 130 -30 0 -29 0 -3 -77 -3 -78 -48 78
c-43 68 -52 77 -78 77 l-29 0 0 -130z"/>
<path d="M2260 3793 c0 -56 61 -271 115 -403 19 -47 52 -134 75 -195 22 -60
71 -162 108 -225 37 -63 74 -128 82 -145 36 -70 168 -127 337 -144 62 -6 1095
-10 2828 -11 l2730 0 51 30 c89 50 256 248 318 375 44 91 193 581 180 594 -2
2 -14 -20 -26 -50 -38 -93 -183 -372 -234 -449 -27 -41 -78 -105 -113 -142
-54 -58 -72 -71 -125 -87 -153 -47 -151 -47 -971 -45 -280 1 -571 1 -645 0
-304 -2 -1404 16 -1815 30 -400 14 -454 14 -584 0 -79 -9 -194 -16 -255 -16
-61 0 -185 -7 -276 -16 -350 -34 -605 -34 -845 1 -241 34 -318 54 -431 109
-133 66 -185 131 -316 396 -55 113 -115 245 -134 294 -31 84 -54 125 -54 99z"/>
</g>
</svg>
